<svg xmlns="http://www.w3.org/2000/svg" viewBox="0 0 284.57 48.96"><title>Asset 8</title><g id="Layer_2" data-name="Layer 2"><g id="Layer_1-2" data-name="Layer 1"><path d="M9.46,24.61A4.52,4.52,0,0,1,4.7,28.85,4.47,4.47,0,0,1,0,24.61a4.47,4.47,0,0,1,4.7-4.24A4.52,4.52,0,0,1,9.46,24.61Z" style="fill:#1d1d1b"/><path d="M27.85,11.89a6,6,0,0,1-6.27-5.71C21.58,3,24.37.52,27.85.52S34.17,3,34.17,6.18,31.21,11.89,27.85,11.89ZM23.38,6.18a4.31,4.31,0,0,0,4.47,4.08,4.32,4.32,0,0,0,4.52-4.08,4.32,4.32,0,0,0-4.52-4A4.3,4.3,0,0,0,23.38,6.18Z" style="fill:#1d1d1b"/><path d="M84.24,11.21a5.36,5.36,0,0,1-5-5.61,5.08,5.08,0,1,1,10.1,0A5.33,5.33,0,0,1,84.24,11.21Zm0-1.57c2,0,3.42-1.84,3.42-4s-1.45-4-3.42-4-3.42,1.78-3.42,4S82.33,9.64,84.24,9.64Z" style="fill:#1d1d1b"/><path d="M125.49,24.61a4.52,4.52,0,0,1-4.76,4.24A4.46,4.46,0,0,1,116,24.61a4.46,4.46,0,0,1,4.69-4.24A4.52,4.52,0,0,1,125.49,24.61Z" style="fill:#1d1d1b"/><path d="M138.31,23.36a3.46,3.46,0,0,1,6.91,0,3.46,3.46,0,0,1-6.91,0Zm0,18.48a3.46,3.46,0,0,1,6.91,0,3.46,3.46,0,0,1-6.91,0Z" style="fill:#1d1d1b"/><path d="M150.32,41.79a3.26,3.26,0,0,1,3.48-3.3,3.3,3.3,0,1,1-.05,6.6A3.25,3.25,0,0,1,150.32,41.79Z" style="fill:#1d1d1b"/><path d="M177.59,41.63c0,4-3.65,7.33-8.12,7.33s-8.12-3.29-8.12-7.33,3.65-7.33,8.12-7.33S177.59,37.71,177.59,41.63Zm-2.09,0c0-3-2.67-5.44-6-5.44a5.71,5.71,0,0,0-6,5.44,5.7,5.7,0,0,0,6,5.4C173,47,175.5,44.51,175.5,41.63Z" style="fill:#1d1d1b"/><path d="M191.34,41.79a3.26,3.26,0,0,1,3.48-3.3,3.3,3.3,0,1,1-.06,6.6A3.24,3.24,0,0,1,191.34,41.79Z" style="fill:#1d1d1b"/><path d="M203.35,41.79a3.26,3.26,0,0,1,3.48-3.3,3.3,3.3,0,1,1-.06,6.6A3.24,3.24,0,0,1,203.35,41.79Z" style="fill:#1d1d1b"/><path d="M230.62,41.63c0,4-3.66,7.33-8.13,7.33s-8.12-3.29-8.12-7.33,3.66-7.33,8.12-7.33S230.62,37.71,230.62,41.63Zm-2.09,0c0-3-2.67-5.44-6-5.44a5.7,5.7,0,0,0-6,5.44,5.7,5.7,0,0,0,6,5.4C226,47,228.53,44.51,228.53,41.63Z" style="fill:#1d1d1b"/><path d="M244.37,41.79a3.26,3.26,0,0,1,3.48-3.3,3.3,3.3,0,1,1-.06,6.6A3.24,3.24,0,0,1,244.37,41.79Z" style="fill:#1d1d1b"/><path d="M256.38,23.36a3.45,3.45,0,0,1,6.9,0,3.46,3.46,0,0,1-6.9,0Zm0,18.48a3.45,3.45,0,0,1,6.9,0,3.46,3.46,0,0,1-6.9,0Z" style="fill:#1d1d1b"/><path d="M284.57,24.61a4.52,4.52,0,0,1-4.76,4.24,4.47,4.47,0,0,1-4.7-4.24,4.47,4.47,0,0,1,4.7-4.24A4.52,4.52,0,0,1,284.57,24.61Z" style="fill:#1d1d1b"/></g></g></svg>