<svg xmlns="http://www.w3.org/2000/svg" viewBox="0 0 285.78 47.14"><title>Asset 9</title><g id="Layer_2" data-name="Layer 2"><g id="Layer_1-2" data-name="Layer 1"><path d="M9.1,23.69a4.35,4.35,0,0,1-4.58,4.09A4.31,4.31,0,0,1,0,23.69a4.3,4.3,0,0,1,4.52-4.08A4.35,4.35,0,0,1,9.1,23.69Z" style="fill:#1d1d1b"/><path d="M21.45,22.48a3.13,3.13,0,0,1,3.35-3.17,3.15,3.15,0,1,1-.06,6.3A3.11,3.11,0,0,1,21.45,22.48Zm0,17.8a3.13,3.13,0,0,1,3.35-3.17,3.15,3.15,0,1,1-.06,6.3A3.11,3.11,0,0,1,21.45,40.28Z" style="fill:#1d1d1b"/><path d="M33,40.23a3.14,3.14,0,0,1,3.35-3.18,3.18,3.18,0,1,1-.06,6.36A3.12,3.12,0,0,1,33,40.23Z" style="fill:#1d1d1b"/><path d="M59.25,40.08c0,3.88-3.51,7.06-7.81,7.06S43.62,44,43.62,40.08,47.13,33,51.44,33,59.25,36.3,59.25,40.08Zm-2,0a5.51,5.51,0,0,0-5.8-5.24,5.5,5.5,0,0,0-5.76,5.24,5.49,5.49,0,0,0,5.76,5.19C54.79,45.27,57.24,42.85,57.24,40.08Z" style="fill:#1d1d1b"/><path d="M72.49,40.23a3.15,3.15,0,0,1,3.35-3.18,3.18,3.18,0,1,1-3.35,3.18Z" style="fill:#1d1d1b"/><path d="M95.89,40.23a3.15,3.15,0,0,1,3.35-3.18,3.18,3.18,0,1,1-3.35,3.18Z" style="fill:#1d1d1b"/><path d="M122.14,40.08c0,3.88-3.52,7.06-7.82,7.06S106.5,44,106.5,40.08,110,33,114.32,33,122.14,36.3,122.14,40.08Zm-2,0c0-2.92-2.57-5.24-5.81-5.24a5.49,5.49,0,0,0-5.75,5.24,5.49,5.49,0,0,0,5.75,5.19C117.67,45.27,120.13,42.85,120.13,40.08Z" style="fill:#1d1d1b"/><path d="M135.37,40.23a3.15,3.15,0,0,1,3.36-3.18,3.18,3.18,0,1,1-3.36,3.18Z" style="fill:#1d1d1b"/><path d="M146.93,22.48a3.33,3.33,0,0,1,6.65,0,3.33,3.33,0,0,1-6.65,0Zm0,17.8a3.33,3.33,0,0,1,6.65,0,3.33,3.33,0,0,1-6.65,0Z" style="fill:#1d1d1b"/><path d="M174.08,23.69a4.36,4.36,0,0,1-4.58,4.09A4.31,4.31,0,0,1,165,23.69a4.31,4.31,0,0,1,4.53-4.08A4.36,4.36,0,0,1,174.08,23.69Z" style="fill:#1d1d1b"/><path d="M191.78,11.44a5.77,5.77,0,0,1-6-5.49c0-3,2.68-5.45,6-5.45s6.09,2.42,6.09,5.45S195,11.44,191.78,11.44ZM187.48,6a4.35,4.35,0,0,0,8.66,0,4.36,4.36,0,0,0-8.66,0Z" style="fill:#1d1d1b"/><path d="M246.07,10.79a5.15,5.15,0,0,1-4.86-5.4,4.89,4.89,0,1,1,9.72,0A5.13,5.13,0,0,1,246.07,10.79Zm0-1.51c1.9,0,3.29-1.77,3.29-3.89S248,1.56,246.07,1.56s-3.3,1.72-3.3,3.83S244.22,9.28,246.07,9.28Z" style="fill:#1d1d1b"/><path d="M285.78,23.69a4.36,4.36,0,0,1-4.58,4.09,4.31,4.31,0,0,1-4.53-4.09,4.31,4.31,0,0,1,4.53-4.08A4.36,4.36,0,0,1,285.78,23.69Z" style="fill:#1d1d1b"/></g></g></svg>