<svg xmlns="http://www.w3.org/2000/svg" viewBox="0 0 580.81 43.84"><title>Asset 1</title><g id="Layer_2" data-name="Layer 2"><g id="Layer_1-2" data-name="Layer 1"><path d="M25.05,25l-.27-.12-1-.28c-1.25.28-3.53-.41-6.46-1.4-.05.17.15.43-.91.17-4.54-1.9-2.32-.77-5.82-1.56a14.83,14.83,0,0,1,2.82,1.08l-3.28-1C9.08,21.48,8,21,7,20.62c.73.69,1.31,1.36.14,1.17.39.92-2.05.8-3.16,1.13,1.13.58,2,1.07,2.42,1.34-.27.21-1.44-.14-2.84-.68a1.78,1.78,0,0,0,.34.38,1.78,1.78,0,0,1-.34-.38c-.92-.36-1.93-.79-2.86-1.21.49.31,1,.62.66.63l4,1.68c.1.12,0,.12-.3.06L6.06,25l-.71-.51c-.22-.24.35-.1.9,0a6.72,6.72,0,0,1,1.77,1c.74.21,1.51.3,2.27.45.5-.13-.91-.64-1.94-1.12s-1.7-.88.08-.39a9.63,9.63,0,0,0,1,.52,31.45,31.45,0,0,0,5,1.14,6.6,6.6,0,0,0,2.89,1c1,.16,1.86.3,1.88.75,1.55.5,3.25,1,5,1.41s3.63.66,5.48,1l2.77.51c.92.16,1.84.26,2.74.4,1.8.28,3.53.61,5.14,1,1.18-.45,1.29-1.63,4.14-2.17.55.12,1.4.26,1.1.38l2-.2a12.84,12.84,0,0,1-3.08-.36c3.1-.09-1.36-.58-1.06-.88l4.2-.07-.49-.16q-2.79-.24-5.58-.53c-1.84-.27-3.67-.6-5.5-.9l-2.75-.47-2.69-.64c-1.79-.43-3.59-.81-5.37-1.26Z" transform="translate(-0.67)" style="fill:#1d1d1b"/><path d="M155.29,25.68l-.18-.66c32.43-5.6,71.07-8.77,111.61-8.68,20.27,0,41,.84,61.71,2.38l7.75.59,7.75.69q7.74.67,15.46,1.48c10.31,1,20.62,2.12,30.92,2.74l-2.19,2.4c5.56,0,11.32-.05,17.17-.26s11.79-.64,17.66-1.31a153.08,153.08,0,0,0,17.22-2.95c5.55-1.3,10.78-2.87,15.68-4.46-2.62.45-5.24.89-7.89,1.29,6.91-2.76,24.64-8.45,36.1-9.56l-1,.81c-15.33,2.92,1.06,0-4.84,2.83-.86.25-1.72.55-2.58.82l1.6,0c.86-.28,1.72-.52,2.58-.79-.23.43.08.86-2.37,1.45l3.5-.54c3.9.29,5.84.94,6.74,1.71s.75,1.67.42,2.73c.92-.24.84-.78,1.54-1.29s2.22-1,6.21-.79c-.34.21-.68.43-1,.67,2.88-.39,5.78-.86,8.74-1,1.29.38,2.56.7,3.82,1.19,1.58,0,2.89-.07,4.21,0a23,23,0,0,1,4.19.72L517,16.79a198.37,198.37,0,0,1,23.32,7A139.8,139.8,0,0,1,563,34.56c3.66.41,10.24,5.91,18.49,9.28l-2.62-3.09c-3.71-3.15-10.56-7.22-18.25-11.19s-16.24-7.74-23.26-10.68l.83-.51c1.55.44,2.92.74,4.34,1.19a22.54,22.54,0,0,1,4.69,1.93l1.49-.8c-2.15-3.54-8.83-6.05-15.61-7.47-1.69-.37-3.38-.7-5-.91s-3.19-.5-4.63-.64a46.72,46.72,0,0,1-6.58-1c-5.72-1.71-3.74-2.07-.91-2.09s6.37.47,3.53-.12c6.69.68,4.25-.8-.75-2.72S506,2.18,503.05,1.31A55.77,55.77,0,0,0,487.31.09,122.72,122.72,0,0,0,468,2.89c-6.51,1.42-13,3.13-18.91,4.56a149.44,149.44,0,0,1-16.25,3.2,114.62,114.62,0,0,1-26,2.73,256,256,0,0,1-28.54-1.84c-9.63-1.08-19.23-2.44-28.49-3.5-4.63-.5-9.14-1-13.49-1.41s-8.53-.71-12.5-.94c-3.8-.29-8.21-.27-12.82-.15l-14,.68a128.38,128.38,0,0,1-13,.22,28.21,28.21,0,0,1-9.7-1.65Q260,4.37,245.67,4.45l.59-.78C232.33,4,217.7,5.23,203.39,7s-28.34,3.88-41.16,5.88c-11.21,1.75-14.29,4.17-19.7,2.9-11.28,1-23.18,3.62-34.92,6.13s-23.36,5-34,6c.14.67-2.78,1.6,1.2,1.68,10.84-1.76,23.65-2.09,24.34-.29L95,29.66c2.52.13,5,.3,7.58.39l4.62-1.34c1.28.25,1.88.52,2,.79,8.19-.7,15.51-.34,24-.66a92.49,92.49,0,0,1,9.65-2c1.8-.28,3.71-.53,5.75-.74S152.93,25.8,155.29,25.68Z" transform="translate(-0.67)" style="fill:#1d1d1b"/></g></g></svg>