<svg xmlns="http://www.w3.org/2000/svg" viewBox="0 0 614.16 48.64"><title>Asset 3</title><g id="Layer_2" data-name="Layer 2"><g id="Layer_1-2" data-name="Layer 1"><path d="M588.31,48.6l.32,0h1.13c1.29-.64,3.93-.52,7.4-.49,0-.18-.31-.35.9-.5,5.5.1,2.75-.13,6.69-.68a17.11,17.11,0,0,1-3.36,0l3.8-.27,3.79-.34c-1.06-.27-1.94-.6-.69-1-.81-.65,1.63-1.66,2.52-2.45-1.36,0-2.44,0-2.95-.09.16-.31,1.44-.53,3-.69a1.94,1.94,0,0,0-.51-.18,1.94,1.94,0,0,1,.51.18c1-.1,2.2-.17,3.28-.23-.61-.05-1.22-.1-.93-.25l-4.53.3c-.15-.06,0-.13.26-.2l-1.16.26.91.12c.32.11-.28.24-.87.37a7.49,7.49,0,0,1-2.12,0c-.8.17-1.61.3-2.41.45-.88.62,6.37-.06,2.47.68l-1.22-.06a35.26,35.26,0,0,0-5.42.75,8.77,8.77,0,0,0-3.3.06c-1.1.13-2,.22-2.17-.2-7-.17-16.07.61-23-.41-1.22.56-1.23,1.74-4.28,2.37-.61-.1-1.53-.22-1.21-.35l-2.14.26a14.14,14.14,0,0,1,3.34.28c-3.35.17,1.51.53,1.21.84l-4.59.2.54.14c8.18.44,16.37,1,24.59,1.12Z" style="fill:#1d1d1b"/><path d="M452.15,22l-.06.68a191.53,191.53,0,0,0-27.21-3.84,174.22,174.22,0,0,0-29.34,1.34c-9.92,1.16-20,2.81-30.12,4-2.55.3-5.09.6-7.66.8l-7.73.57c-2.58.24-5.19.23-7.8.34s-5.23.23-7.86.16L326.45,26c-2.65,0-5.31-.2-8-.3l-4-.17-4-.28-8-.58q-16.07-1.47-32.2-3.79c-21.49-3.06-43-6.89-64.17-10l2.45-2.2L190.89,7.22c-6-.44-12.11-.92-18.19-1.24s-12.12-.48-18-.51-11.57.16-17,.48c2.78.24,5.56.43,8.34.72-3.86.52-10.65.89-18,1.3L107,9.16l1.14-.75c16.44-1.34-1.14-.16,5.44-2.36,1-.18,1.9-.31,2.86-.46l-1.7-.26-2.87.5c.3-.4,0-.88,2.75-1.17l-3.86.15C102.29,3.58,102.08,2.11,103,0c-1.1.21-1,.77-1.86,1.3s-2.56,1-7.28,1.24L95,1.74,89.93,3l-5,1.34-4.68-.07c-1.79.5-3.23,1-4.71,1.45a40.79,40.79,0,0,1-4.85,1.07l-.82,1.56A143.6,143.6,0,0,0,43.5,16.48c-8.91,3.64-17.56,7.92-25.23,12C17,30,14.12,31.53,10.74,33.68,9,34.7,7.24,36,5.38,37.32A52.34,52.34,0,0,0,0,42l4.14-1.43c4.66-2.39,11.75-7.14,20-11.56a139.92,139.92,0,0,1,25.33-10.9l-.35.93c-.79.34-1.52.69-2.22,1l-2.1,1.07a39.69,39.69,0,0,1-5,2l-.5,1.67c4.17.68,10.73-2.14,17.3-5s13.08-5.71,16-6c3.12-.39,4.23-.19,4.2.13s-1.16.86-2.48,1.42c-2.66,1.14-6.11,2.27-3.26,1.54-3.21,1.18-4,1.9-3.44,2.16s2.63.17,5.26,0,5.82-.42,8.72-.59a51.81,51.81,0,0,1,7,0c4,.16,9.08,0,14.82-.24s12.14-.52,18.73-.69c13.16-.4,27.06-.16,37.5.62,17.53-.32,38,2.68,58.08,6.27s39.92,7.65,56.48,9.66c7.9,1.23,18.46,1.13,28.22,1.21,2.45,0,4.84,0,7.14,0s4.5.17,6.56.26a33.38,33.38,0,0,1,10.24,1.9c5.06.09,10.12.34,15.21.18,2.55,0,5.09,0,7.64-.13l7.64-.43-.58.81c15-1.1,29.95-4.49,44.18-6.45a154.1,154.1,0,0,1,20.83-1.68A115.43,115.43,0,0,1,441,31.62c5.58,1,9.37,1.33,12.34,1.76A15.85,15.85,0,0,1,460.82,36a216.26,216.26,0,0,0,36.88,7.12c12.76,1.49,25.5,2.22,37,3.08,0-.69,3.22-1.14-1-1.86-11.82-.15-25.05-3.68-25.16-5.6l4.31.79L505.34,37c-1.68,0-3.36-.13-5-.19-1.2-.66-1.7-1.1-1.74-1.4a121.84,121.84,0,0,1-11.87-3.61l-11.87-4.33C468.6,26.68,461.68,25.05,452.15,22Z" style="fill:#1d1d1b"/></g></g></svg>